<?xml version="1.0" encoding="UTF-8" standalone="no" ?>
<!DOCTYPE svg PUBLIC "-//W3C//DTD SVG 1.1//EN" "http://www.w3.org/Graphics/SVG/1.1/DTD/svg11.dtd">
<svg xmlns="http://www.w3.org/2000/svg" xmlns:xlink="http://www.w3.org/1999/xlink" version="1.1" width="640" height="640" viewBox="0 0 640 640" xml:space="preserve">
<desc>Created with Fabric.js 4.6.0</desc>
<defs>
</defs>
<g transform="matrix(12.79 0 0 12.79 319.83 319.83)" id="3lkMqKCH7fbkqC_fY5elS"  >
<g style="" vector-effect="non-scaling-stroke"   >
		<g transform="matrix(1 0 0 1 0 9.68)" id="6RPne-KpzwNFyXj5o-NbQ" clip-path="url(#CLIPPATH_7)"  >
<clipPath id="CLIPPATH_7" >
	<rect transform="matrix(1 0 0 1 0 -9.68)" id="clip0_1_620" x="-25" y="-25" rx="0" ry="0" width="50" height="50" />
</clipPath>
<path style="stroke: none; stroke-width: 1; stroke-dasharray: none; stroke-linecap: butt; stroke-dashoffset: 0; stroke-linejoin: miter; stroke-miterlimit: 4; fill: rgb(255,75,50); fill-rule: nonzero; opacity: 1;" vector-effect="non-scaling-stroke"  transform=" translate(-25, -34.68)" d="M 46.8497 41.8508 L 39.7774 41.8508 C 39.3728 41.8508 39.045 42.1787 39.045 42.5832 C 39.045 42.9877 39.3728 43.3156 39.7774 43.3156 L 46.1173 43.3156 L 46.1173 43.7288 L 35.4526 45.7541 L 14.0748 45.7541 L 3.41016 43.7288 L 3.41016 43.3156 L 6.32227 43.3156 C 6.32345 43.3156 6.32462 43.3158 6.32569 43.3158 C 6.32657 43.3158 6.32755 43.3156 6.32843 43.3156 L 8.9673 43.3156 C 8.96818 43.3156 8.96896 43.3158 8.96984 43.3158 C 8.97121 43.3158 8.97267 43.3156 8.97404 43.3156 L 17.755 43.3156 C 17.7555 43.3156 17.756 43.3157 17.7566 43.3157 C 17.7571 43.3157 17.7575 43.3156 17.7579 43.3156 L 20.3746 43.3156 C 20.3754 43.3156 20.3762 43.3158 20.377 43.3158 C 20.3778 43.3158 20.3787 43.3156 20.3794 43.3156 L 29.148 43.3156 C 29.1489 43.3156 29.1497 43.3158 29.1504 43.3158 C 29.1512 43.3158 29.152 43.3156 29.1527 43.3156 L 37.0576 43.3156 C 37.4622 43.3156 37.79 42.9877 37.79 42.5832 C 37.79 42.1787 37.4622 41.8508 37.0576 41.8508 L 32.3334 41.8508 C 33.2081 41.2949 34.0244 40.6439 34.7583 39.9105 C 35.8175 38.8508 36.6872 37.6521 37.3518 36.3562 C 38.278 36.7335 39.2587 36.925 40.2754 36.925 C 44.5649 36.925 48.0547 33.4347 48.0547 29.1447 C 48.0547 24.8551 44.5649 21.3654 40.2754 21.3654 C 39.8105 21.3654 39.35 21.4075 38.8974 21.4886 L 38.8974 21.0696 C 38.8974 20.1321 38.1347 19.3694 37.1973 19.3694 L 33.7334 19.3694 C 33.3288 19.3694 33.0009 19.6973 33.0009 20.1018 C 33.0009 20.5063 33.3288 20.8342 33.7334 20.8342 L 37.1973 20.8342 C 37.327 20.8342 37.4326 20.9398 37.4326 21.0696 L 37.4326 22.3147 L 12.0937 22.3147 L 12.0937 21.0696 C 12.0937 20.9398 12.1992 20.8342 12.329 20.8342 L 31.0127 20.8342 C 31.4172 20.8342 31.7451 20.5063 31.7451 20.1018 C 31.7451 19.6973 31.4172 19.3694 31.0127 19.3694 L 12.329 19.3694 C 11.3915 19.3694 10.6288 20.1321 10.6288 21.0696 L 10.6288 29.9153 C 10.6288 31.02 10.758 32.1152 11.0098 33.179 C 9.81769 32.8235 8.39718 33.1028 7.10108 33.9896 C 6.7672 34.218 6.68165 34.6738 6.91007 35.0077 C 7.13859 35.3415 7.59444 35.4269 7.92823 35.1986 C 8.77765 34.6175 9.66906 34.3893 10.4062 34.537 L 7.73839 38.5284 C 7.51359 38.8647 7.60402 39.3196 7.94025 39.5443 C 8.06525 39.6279 8.20675 39.6679 8.3466 39.6679 C 8.58302 39.6679 8.81505 39.5537 8.95617 39.3425 L 11.6247 35.3497 C 11.9015 35.7605 12.0531 36.2981 12.0603 36.9247 C 12.0603 36.925 12.0603 36.9252 12.0603 36.9255 C 12.0603 36.9268 12.0604 36.9282 12.0604 36.9296 C 12.0702 37.8971 11.7321 38.9437 11.1086 39.8765 C 10.7531 40.4085 10.3328 40.8646 9.85685 41.2342 C 9.52687 41.4926 9.18019 41.6993 8.82501 41.8508 L 6.51124 41.8508 C 6.48478 41.8349 6.45841 41.819 6.43214 41.8012 C 5.2127 40.9868 5.13555 38.8804 6.25645 37.0059 C 6.46407 36.6588 6.35099 36.209 6.00382 36.0013 C 5.65684 35.7939 5.20694 35.9068 4.99932 36.2541 C 4.28477 37.4489 3.93575 38.7802 4.01661 40.0027 C 4.0625 40.6964 4.24405 41.3215 4.54288 41.8507 L 2.67774 41.8507 C 2.27315 41.8507 1.94531 42.1786 1.94531 42.5831 L 1.94531 44.335 C 1.94531 44.6869 2.19551 44.9889 2.54111 45.0546 L 13.3116 47.1 L 13.3116 49.2676 C 13.3116 49.6721 13.6395 50 14.0441 50 L 35.4824 50 C 35.887 50 36.2148 49.6721 36.2148 49.2676 L 36.2148 47.1002 L 46.9863 45.0546 C 47.3319 44.9889 47.5821 44.6868 47.5821 44.335 L 47.5821 42.5831 C 47.5821 42.1787 47.2542 41.8508 46.8497 41.8508 Z M 38.8973 29.9151 L 38.8973 26.4499 L 38.8974 26.4499 C 39.3218 26.232 39.7912 26.1164 40.2754 26.1164 C 41.9452 26.1164 43.3037 27.4749 43.3037 29.1447 C 43.3037 30.8145 41.9452 32.173 40.2754 32.173 C 39.7432 32.173 39.231 32.0348 38.7761 31.7743 C 38.8559 31.1628 38.8973 30.5422 38.8973 29.9151 Z M 38.4979 33.272 C 39.0548 33.5125 39.6563 33.638 40.2754 33.638 C 42.7529 33.638 44.7685 31.6223 44.7685 29.1448 C 44.7685 26.6672 42.7529 24.6516 40.2754 24.6516 C 39.8027 24.6516 39.339 24.7255 38.8974 24.8678 L 38.8974 23.0546 C 38.8974 23.0521 38.8978 23.0497 38.8978 23.0471 C 38.8978 23.0446 38.8974 23.0421 38.8974 23.0396 L 38.8974 22.9821 C 39.347 22.8817 39.8086 22.8302 40.2755 22.8302 C 43.7572 22.8302 46.5899 25.6629 46.5899 29.1447 C 46.5899 32.627 43.7572 35.4601 40.2755 35.4601 C 39.4679 35.4601 38.6895 35.3096 37.9529 35.017 C 38.1723 34.4491 38.3539 33.8663 38.4979 33.272 Z M 12.0937 23.7795 L 37.4326 23.7795 L 37.4326 26.034 C 37.4326 26.0348 37.4326 26.0357 37.4326 26.0365 L 37.4326 29.9152 C 37.4326 33.2994 36.1149 36.4813 33.7225 38.8747 C 32.397 40.1993 30.7736 41.2259 29.022 41.8508 L 20.5063 41.8508 C 20.2701 41.7667 20.035 41.6762 19.8029 41.5773 C 20.3403 40.7324 20.5451 39.7924 20.3682 38.8965 C 20.368 38.8953 20.3679 38.8942 20.3677 38.893 C 20.3674 38.8917 20.3669 38.8903 20.3667 38.8889 C 20.1332 37.7234 19.3097 36.7644 18.0472 36.1884 C 16.8646 35.6489 15.4192 35.5092 13.9771 35.7956 C 13.8459 35.8216 13.7159 35.8514 13.587 35.8842 C 12.6094 34.0566 12.0937 32.0054 12.0937 29.9153 L 12.0937 23.7795 Z M 12.3267 40.6904 C 13.0047 39.676 13.4139 38.5384 13.5053 37.436 C 13.751 37.3532 14.0037 37.2838 14.2626 37.2322 C 16.1262 36.8623 17.9231 37.423 18.6396 38.4898 L 13.9325 39.4255 C 13.5358 39.5044 13.2781 39.8898 13.3569 40.2866 C 13.4262 40.6351 13.7322 40.8763 14.0745 40.8763 C 14.1218 40.8763 14.1699 40.8718 14.2181 40.8621 L 18.9281 39.9258 C 18.8341 40.4076 18.5656 40.8906 18.1354 41.3344 C 18.1342 41.3355 18.1331 41.3368 18.1321 41.338 C 17.9527 41.522 17.7498 41.6934 17.5289 41.8506 L 11.3706 41.8506 C 11.7217 41.5044 12.0419 41.1166 12.3267 40.6904 Z M 34.75 48.5353 L 14.7764 48.5353 L 14.7764 47.2189 L 34.75 47.2189 L 34.75 48.5353 Z" stroke-linecap="round" />
</g>
		<g transform="matrix(1 0 0 1 1.65 -10.35)" id="jYsmMo-9olr57uRH2qrxe" clip-path="url(#CLIPPATH_8)"  >
<clipPath id="CLIPPATH_8" >
	<rect transform="matrix(1 0 0 1 -1.65 10.35)" id="clip0_1_620" x="-25" y="-25" rx="0" ry="0" width="50" height="50" />
</clipPath>
<path style="stroke: none; stroke-width: 1; stroke-dasharray: none; stroke-linecap: butt; stroke-dashoffset: 0; stroke-linejoin: miter; stroke-miterlimit: 4; fill: rgb(255,75,50); fill-rule: nonzero; opacity: 1;" vector-effect="non-scaling-stroke"  transform=" translate(-26.65, -14.65)" d="M 26.6696 14.6436 C 26.6563 14.652 26.6455 14.6587 26.6377 14.6637 C 26.645 14.659 26.6558 14.6522 26.6696 14.6436 Z" stroke-linecap="round" />
</g>
		<g transform="matrix(1 0 0 1 1.63 -10.33)" id="c46hyOm0VDNUh0Hr2GU3R" clip-path="url(#CLIPPATH_9)"  >
<clipPath id="CLIPPATH_9" >
	<rect transform="matrix(1 0 0 1 -1.63 10.33)" id="clip0_1_620" x="-25" y="-25" rx="0" ry="0" width="50" height="50" />
</clipPath>
<path style="stroke: none; stroke-width: 1; stroke-dasharray: none; stroke-linecap: butt; stroke-dashoffset: 0; stroke-linejoin: miter; stroke-miterlimit: 4; fill: rgb(255,75,50); fill-rule: nonzero; opacity: 1;" vector-effect="non-scaling-stroke"  transform=" translate(-26.63, -14.67)" d="M 26.6382 14.6636 C 26.6181 14.6762 26.6206 14.6746 26.6382 14.6636 L 26.6382 14.6636 Z" stroke-linecap="round" />
</g>
		<g transform="matrix(1 0 0 1 3.07 -17.01)" id="dt4cyHVoT9f6l1QwJIm1v" clip-path="url(#CLIPPATH_10)"  >
<clipPath id="CLIPPATH_10" >
	<rect transform="matrix(1 0 0 1 -3.07 17.01)" id="clip0_1_620" x="-25" y="-25" rx="0" ry="0" width="50" height="50" />
</clipPath>
<path style="stroke: none; stroke-width: 1; stroke-dasharray: none; stroke-linecap: butt; stroke-dashoffset: 0; stroke-linejoin: miter; stroke-miterlimit: 4; fill: rgb(255,75,50); fill-rule: nonzero; opacity: 1;" vector-effect="non-scaling-stroke"  transform=" translate(-28.07, -7.99)" d="M 28.2554 7.99494 C 29.2418 7.05744 29.8098 5.75832 29.8098 4.36378 C 29.8098 2.62794 28.9311 1.03877 27.4592 0.1126 C 27.1169 -0.10283 26.6645 0.000100211 26.4493 0.342484 C 26.2338 0.684867 26.3368 1.13702 26.6792 1.35245 C 27.7223 2.0088 28.3451 3.13448 28.3451 4.36368 C 28.3451 5.59288 27.7223 6.71857 26.6792 7.37492 C 26.2314 7.65578 26.2314 8.33293 26.6792 8.61477 C 27.7223 9.27111 28.3451 10.3968 28.3451 11.626 C 28.3452 12.8553 27.7224 13.9811 26.6793 14.6374 C 26.6754 14.6398 26.673 14.6413 26.6697 14.6435 C 26.6728 14.6415 26.6758 14.6397 26.6793 14.6375 C 26.3369 14.853 26.2339 15.3051 26.4494 15.6475 C 26.5885 15.8688 26.8265 15.99 27.0699 15.99 C 27.2032 15.99 27.3381 15.9536 27.4592 15.8774 C 28.9311 14.9513 29.8098 13.362 29.8098 11.6263 C 29.8098 10.2316 29.2417 8.93244 28.2554 7.99494 Z M 27.0613 14.397 C 27.0786 14.3862 27.0807 14.3848 27.0613 14.397 L 27.0613 14.397 Z M 26.9659 14.4572 C 26.9819 14.447 26.9967 14.4377 27.0101 14.4293 C 26.9973 14.4373 26.983 14.4464 26.9659 14.4572 Z" stroke-linecap="round" />
</g>
		<g transform="matrix(1 0 0 1 8.23 -13.37)" id="PSv8OIhONp4CTLlLf571o" clip-path="url(#CLIPPATH_11)"  >
<clipPath id="CLIPPATH_11" >
	<rect transform="matrix(1 0 0 1 -8.23 13.37)" id="clip0_1_620" x="-25" y="-25" rx="0" ry="0" width="50" height="50" />
</clipPath>
<path style="stroke: none; stroke-width: 1; stroke-dasharray: none; stroke-linecap: butt; stroke-dashoffset: 0; stroke-linejoin: miter; stroke-miterlimit: 4; fill: rgb(255,75,50); fill-rule: nonzero; opacity: 1;" vector-effect="non-scaling-stroke"  transform=" translate(-33.23, -11.63)" d="M 32.6138 7.37508 C 32.2715 7.15965 31.8191 7.26248 31.6038 7.60496 C 31.3884 7.94724 31.4913 8.39949 31.8337 8.61492 C 32.8768 9.27127 33.4995 10.3971 33.4995 11.6263 C 33.4996 12.8553 32.8769 13.981 31.8338 14.6374 C 31.4914 14.8528 31.3885 15.305 31.6039 15.6474 C 31.7431 15.8686 31.9811 15.9898 32.2244 15.9898 C 32.3577 15.9898 32.4927 15.9534 32.6138 15.8772 C 34.0856 14.9512 34.9643 13.3619 34.9643 11.6262 C 34.9643 9.89041 34.0856 8.30115 32.6138 7.37508 Z" stroke-linecap="round" />
</g>
		<g transform="matrix(1 0 0 1 -2.5 -13.37)" id="MxGga85ZRLFR3EhaAmVVN" clip-path="url(#CLIPPATH_12)"  >
<clipPath id="CLIPPATH_12" >
	<rect transform="matrix(1 0 0 1 2.5 13.37)" id="clip0_1_620" x="-25" y="-25" rx="0" ry="0" width="50" height="50" />
</clipPath>
<path style="stroke: none; stroke-width: 1; stroke-dasharray: none; stroke-linecap: butt; stroke-dashoffset: 0; stroke-linejoin: miter; stroke-miterlimit: 4; fill: rgb(255,75,50); fill-rule: nonzero; opacity: 1;" vector-effect="non-scaling-stroke"  transform=" translate(-22.5, -11.63)" d="M 21.8828 7.37505 C 21.5405 7.15962 21.0881 7.26255 20.8729 7.60494 C 20.6574 7.94732 20.7604 8.39947 21.1027 8.6149 C 22.1459 9.27125 22.7687 10.3969 22.7687 11.6261 C 22.7688 12.8553 22.146 13.9811 21.1028 14.6375 C 20.7605 14.8529 20.6575 15.305 20.873 15.6474 C 21.0121 15.8687 21.2501 15.9899 21.4935 15.9899 C 21.6268 15.9899 21.7617 15.9535 21.8828 15.8773 C 23.3547 14.9512 24.2334 13.362 24.2334 11.6262 C 24.2334 9.89039 23.3547 8.30123 21.8828 7.37505 Z" stroke-linecap="round" />
</g>
</g>
</g>
</svg>