<svg width="43" height="41" viewBox="0 0 43 41" fill="none" xmlns="http://www.w3.org/2000/svg">
<path d="M1.05713 1.00879H8.52139L13.5225 25.9954C13.6931 26.8545 14.1605 27.6263 14.8428 28.1755C15.5251 28.7248 16.3788 29.0166 17.2546 28.9998H35.3927C36.2685 29.0166 37.1223 28.7248 37.8046 28.1755C38.4869 27.6263 38.9542 26.8545 39.1249 25.9954L42.1106 10.3391H10.3875M17.8519 38.3304C17.8519 39.361 17.0164 40.1964 15.9858 40.1964C14.9552 40.1964 14.1197 39.361 14.1197 38.3304C14.1197 37.2998 14.9552 36.4643 15.9858 36.4643C17.0164 36.4643 17.8519 37.2998 17.8519 38.3304ZM38.3787 38.3304C38.3787 39.361 37.5433 40.1964 36.5127 40.1964C35.4821 40.1964 34.6466 39.361 34.6466 38.3304C34.6466 37.2998 35.4821 36.4643 36.5127 36.4643C37.5433 36.4643 38.3787 37.2998 38.3787 38.3304Z" stroke="white" stroke-linecap="round" stroke-linejoin="round"/>
</svg>
