<svg width="18" height="16" viewBox="0 0 18 16" fill="none" xmlns="http://www.w3.org/2000/svg">
<path d="M18 5.8496C18 2.99822 15.6803 0.678467 12.8289 0.678467H5.17113C2.31975 0.678502 0 2.99825 0 5.84964C0 6.69163 0.68502 7.37665 1.52701 7.37665H2.98459L1.92927 9.7665C1.55633 10.6111 1.36723 11.5075 1.36723 12.4307V13.41C1.36723 14.4642 2.2249 15.3219 3.27913 15.3219H14.7206C15.7749 15.3219 16.6325 14.4642 16.6325 13.41V12.4307C16.6325 11.5074 16.4434 10.6111 16.0704 9.7665L15.0151 7.37665H16.473C17.315 7.37661 18 6.69163 18 5.8496ZM5.17113 1.85747H12.8289V1.8575C14.4894 1.8575 15.9162 2.87675 16.5171 4.32238H13.1196C12.8293 4.02183 12.4225 3.83437 11.9726 3.83437H6.0274C5.57666 3.83437 5.16927 4.02256 4.87877 4.32406C4.86745 4.32343 4.85624 4.32234 4.84478 4.32234H1.48296C2.08378 2.87668 3.5106 1.85747 5.17113 1.85747ZM1.52701 6.19758C1.33513 6.19758 1.17904 6.04152 1.17904 5.8496C1.17904 5.73228 1.18441 5.6162 1.1944 5.50141H4.43162V5.95644C4.43162 6.0894 4.32341 6.19754 4.19048 6.19754H1.52701V6.19758ZM15.4535 12.4306V13.4099C15.4535 13.814 15.1248 14.1427 14.7206 14.1427H3.27913C2.87504 14.1427 2.54626 13.814 2.54626 13.4099V12.4306C2.54626 11.6724 2.70155 10.9363 3.00783 10.2427L4.27468 7.3739C5.01873 7.33017 5.61069 6.71124 5.61069 5.95647V5.43026C5.61069 5.20044 5.79765 5.01348 6.02743 5.01348H11.9726C12.2024 5.01348 12.3893 5.20044 12.3893 5.43026V5.95647C12.3893 6.71117 12.9811 7.33006 13.725 7.3739L14.9919 10.2428C15.2982 10.9363 15.4535 11.6724 15.4535 12.4306ZM13.8096 6.19761V6.19758C13.6766 6.19758 13.5684 6.08944 13.5684 5.95647V5.50145H16.8056C16.8156 5.61623 16.821 5.73232 16.821 5.84967C16.821 6.04155 16.6649 6.19765 16.473 6.19765H13.8096V6.19761Z" fill="white"/>
</svg>
