<svg width="24" height="20" viewBox="0 0 24 20" fill="none" xmlns="http://www.w3.org/2000/svg">
<path d="M24 7.1327C24 3.33085 20.907 0.237854 17.1052 0.237854H6.89484C3.093 0.237901 0 3.3309 0 7.13275C0 8.2554 0.913359 9.16876 2.03602 9.16876H3.97945L2.57236 12.3552C2.07511 13.4814 1.82297 14.6765 1.82297 15.9076V17.2132C1.82297 18.6189 2.96653 19.7624 4.37217 19.7624H19.6275C21.0331 19.7624 22.1767 18.6189 22.1767 17.2132V15.9076C22.1767 14.6765 21.9246 13.4814 21.4273 12.3552L20.0202 9.16876H21.9639C23.0866 9.16871 24 8.2554 24 7.1327ZM6.89484 1.80985H17.1052V1.8099C19.3193 1.8099 21.2216 3.1689 22.0228 5.0964H17.4928C17.1057 4.69567 16.5634 4.44573 15.9635 4.44573H8.03653C7.43555 4.44573 6.89236 4.69665 6.50503 5.09865C6.48994 5.09781 6.47498 5.09635 6.4597 5.09635H1.97728C2.77837 3.16881 4.6808 1.80985 6.89484 1.80985ZM2.03602 7.59667C1.78017 7.59667 1.57205 7.38859 1.57205 7.1327C1.57205 6.97628 1.57922 6.8215 1.59253 6.66845H5.90883V7.27515C5.90883 7.45243 5.76455 7.59662 5.58731 7.59662H2.03602V7.59667ZM20.6047 15.9074V17.2131C20.6047 17.7519 20.1664 18.1902 19.6275 18.1902H4.37217C3.83339 18.1902 3.39502 17.7519 3.39502 17.2131V15.9074C3.39502 14.8965 3.60206 13.9149 4.01044 12.9902L5.69958 9.1651C6.69164 9.10679 7.48092 8.28156 7.48092 7.2752V6.57357C7.48092 6.26715 7.7302 6.01787 8.03658 6.01787H15.9634C16.2698 6.01787 16.5191 6.26715 16.5191 6.57357V7.2752C16.5191 8.28146 17.3081 9.10665 18.3 9.1651L19.9892 12.9902C20.3977 13.915 20.6047 14.8964 20.6047 15.9074ZM18.4127 7.59671V7.59667C18.2355 7.59667 18.0912 7.45248 18.0912 7.2752V6.6685H22.4075C22.4208 6.82154 22.428 6.97632 22.428 7.13279C22.428 7.38864 22.2199 7.59676 21.964 7.59676H18.4127V7.59671Z" fill="white"/>
</svg>
