<svg width="52" height="52" viewBox="0 0 52 52" fill="none" xmlns="http://www.w3.org/2000/svg">
<path d="M51 26C51 39.8071 39.8071 51 26 51C12.1929 51 1 39.8071 1 26C1 12.1929 12.1929 1 26 1C39.8071 1 51 12.1929 51 26Z" stroke="white" stroke-linecap="round" stroke-linejoin="round"/>
<path d="M34.3333 19.3417C33.5353 19.9046 32.6517 20.3351 31.7166 20.6167C31.2147 20.0396 30.5477 19.6306 29.8058 19.4449C29.0639 19.2593 28.2829 19.306 27.5683 19.5787C26.8538 19.8514 26.2403 20.337 25.8108 20.9698C25.3812 21.6025 25.1564 22.352 25.1666 23.1167V23.95C23.7021 23.988 22.251 23.6632 20.9425 23.0045C19.6339 22.3459 18.5085 21.3739 17.6666 20.175C17.6666 20.175 14.3333 27.675 21.8333 31.0083C20.1171 32.1733 18.0726 32.7575 15.9999 32.675C23.4999 36.8417 32.6666 32.675 32.6666 23.0917C32.6658 22.8596 32.6435 22.628 32.5999 22.4C33.4504 21.5613 34.0506 20.5023 34.3333 19.3417Z" stroke="white" stroke-linecap="round" stroke-linejoin="round"/>
</svg>
